<?xml version="1.0" standalone="no"?>
<!DOCTYPE svg PUBLIC "-//W3C//DTD SVG 20010904//EN"
 "http://www.w3.org/TR/2001/REC-SVG-20010904/DTD/svg10.dtd">
<svg version="1.0" xmlns="http://www.w3.org/2000/svg"
 width="512.000000pt" height="512.000000pt" viewBox="0 0 512.000000 512.000000"
 preserveAspectRatio="xMidYMid meet">
<metadata>
Created by potrace 1.11, written by Peter Selinger 2001-2013
</metadata>
<g transform="translate(0.000000,512.000000) scale(0.100000,-0.100000)"
fill="#000000" stroke="none">
<path d="M773 4370 c-17 -10 -37 -28 -42 -39 -16 -30 -15 -3491 1 -3526 26
-57 -13 -55 993 -55 l927 0 29 29 c53 53 33 131 -39 151 -24 6 -323 10 -854
10 -810 0 -818 0 -838 20 -12 12 -25 32 -30 46 -6 16 -10 605 -10 1565 0 1669
-3 1575 52 1613 20 14 186 16 1596 16 l1574 0 34 -34 34 -34 0 -912 c0 -808 2
-916 16 -945 30 -64 114 -70 158 -12 l21 28 0 1009 c0 1008 0 1009 -21 1037
-11 15 -32 34 -45 40 -19 10 -405 13 -1774 13 -1715 0 -1751 0 -1782 -20z"/>
<path d="M1300 3475 l0 -135 135 0 135 0 0 135 0 135 -135 0 -135 0 0 -135z"/>
<path d="M1970 3475 l0 -95 930 0 930 0 0 95 0 95 -930 0 -930 0 0 -95z"/>
<path d="M1300 2655 l0 -135 135 0 135 0 0 135 0 135 -135 0 -135 0 0 -135z"/>
<path d="M1977 2743 c-4 -3 -7 -46 -7 -95 l0 -88 930 0 931 0 -3 93 -3 92
-921 3 c-506 1 -924 -1 -927 -5z"/>
<path d="M1300 1825 l0 -135 135 0 135 0 0 135 0 135 -135 0 -135 0 0 -135z"/>
<path d="M1970 1825 l0 -95 455 0 455 0 0 95 0 95 -455 0 -455 0 0 -95z"/>
<path d="M4224 1827 c-12 -7 -196 -182 -409 -390 l-388 -379 -56 54 c-31 29
-105 101 -166 159 -60 59 -121 110 -133 114 -70 21 -142 -34 -142 -108 0 -41
3 -45 244 -284 134 -134 248 -243 253 -242 4 0 222 211 483 469 l475 468 0 47
c0 40 -5 51 -33 76 -35 32 -89 39 -128 16z"/>
</g>
</svg>
